#!OML:ASF F:\VICON\USERDATA\INSTALL\rory3\rory3.ASF
:FULLY-SPECIFIED
:DEGREES
495
root -10.6982 18.1038 12.1266 108.593 -88.7334 -111.133
lowerback 11.8475 0.0561903 1.03887
upperback 1.04438 0.254913 1.7648
thorax -5.55527 0.0949613 1.22492
lowerneck -22.2817 -6.10071 -11.2237
upperneck 27.3637 -7.41188 7.61404
head 13.741 -3.50149 3.51543
rclavicle -9.93923e-017 9.14409e-015
rhumerus -38.0095 -16.3599 -76.6237
rradius 28.3517
rwrist 8.51759
rhand -14.4825 10.2142
rfingers 7.12502
rthumb 11.6639 -19.4411
lclavicle -9.93923e-017 9.14409e-015
lhumerus -36.6819 1.42703 85.1089
lradius 29.2579
lwrist -10.1067
lhand -16.5666 25.4999
lfingers 7.12502
lthumb 9.65356 55.2587
rfemur -8.98427 -3.07525 25.0017
rtibia 20.8358
rfoot -6.23444 0.659863
rtoes 14.0036
lfemur -3.40572 -3.3857 -18.4183
ltibia 52.5501
lfoot 10.0368 -10.5781
ltoes -5.18368
496
root -10.8023 18.1105 12.1109 108.927 -89.0832 -111.377
lowerback 11.8069 0.208871 0.812103
upperback 1.05186 0.420479 1.60268
thorax -5.52732 0.18117 1.15535
lowerneck -22.1763 -6.19725 -11.2082
upperneck 27.2636 -7.56629 7.62913
head 13.6953 -3.5649 3.48792
rclavicle -1.04362e-015 -6.75868e-015
rhumerus -37.5555 -15.9568 -76.9468
rradius 28.3829
rwrist 8.18318
rhand -14.6425 10.0787
rfingers 7.12502
rthumb 11.5096 -19.5853
lclavicle -1.04362e-015 -6.75868e-015
lhumerus -36.7491 1.38205 85.1161
lradius 29.387
lwrist -10.0243
lhand -16.5773 25.3204
lfingers 7.12502
lthumb 9.64316 55.0797
rfemur -8.70161 -3.00899 24.7117
rtibia 20.8474
rfoot -6.50543 0.440397
rtoes 13.4049
lfemur -4.64539 -3.27199 -18.6618
ltibia 53.6384
lfoot 9.08246 -9.66169
ltoes -4.26943
497
root -10.9081 18.1152 12.094 100.191 -89.2109 -102.61
lowerback 11.7639 0.325948 0.753209
upperback 1.08616 0.56452 1.55796
thorax -5.46936 0.252982 1.11806
lowerneck -22.0252 -6.33303 -11.3219
upperneck 27.1736 -7.75534 7.69789
head 13.6581 -3.65161 3.49788
rclavicle 1.19271e-015 1.47101e-014
rhumerus -37.0654 -15.5009 -77.247
rradius 28.4159
rwrist 7.84931
rhand -14.8498 9.79249
rfingers 7.12502
rthumb 11.3096 -19.8826
lclavicle 1.19271e-015 1.47101e-014
lhumerus -36.8108 1.41826 85.164
lradius 29.534
lwrist -9.71497
lhand -16.6084 25.5271
lfingers 7.12502
lthumb 9.61315 55.2878
rfemur -8.37801 -3.01899 24.6602
rtibia 20.942
rfoot -6.88256 0.240656
rtoes 13.5294
lfemur -5.78154 -3.15473 -18.6568
ltibia 54.5363
lfoot 8.12964 -8.88805
ltoes -5.07357
498
root -11.011 18.1185 12.0759 90.5452 -89.2088 -92.9921
lowerback 11.8115 0.419404 0.764692
upperback 1.11646 0.688096 1.52786
thorax -5.46525 0.312883 1.05971
lowerneck -21.8144 -6.40396 -11.4607
upperneck 27.0837 -7.90126 7.91895
head 13.6126 -3.70505 3.58318
rclavicle -3.926e-015 -9.54166e-015
rhumerus -36.6269 -15.5174 -77.2272
rradius 28.2175
rwrist 7.76673
rhand -14.4317 9.49228
rfingers 7.12502
rthumb 11.7128 -20.1603
lclavicle -3.926e-015 -9.54166e-015
lhumerus -36.8701 1.80584 84.969
lradius 29.6295
lwrist -9.64319
lhand -16.2066 25.2473
lfingers 7.12502
lthumb 10.0008 54.9897
rfemur -8.01035 -2.60773 24.7396
rtibia 21.0937
rfoot -7.26652 -0.355186
rtoes 13.9207
lfemur -6.82062 -3.0397 -18.5401
ltibia 55.2639
lfoot 7.14541 -8.11055
ltoes -6.32963
499
root -11.1146 18.122 12.0588 85.6035 -89.2349 -88.0764
lowerback 11.8641 0.494666 0.718106
upperback 1.14818 0.778407 1.46544
thorax -5.46207 0.357547 1.00555
lowerneck -21.7268 -6.35499 -11.4254
upperneck 27.1245 -7.9004 8.03749
head 13.6154 -3.6895 3.62766
rclavicle 6.5102e-015 1.63003e-014
rhumerus -36.1396 -15.3229 -77.3
rradius 27.9457
rwrist 7.76944
rhand -14.0336 9.4465
rfingers 7.12502
rthumb 12.0967 -20.1838
lclavicle 6.5102e-015 1.63003e-014
lhumerus -36.9256 2.28684 84.6948
lradius 29.7349
lwrist -9.41402
lhand -16.2593 24.8522
lfingers 7.12502
lthumb 9.95005 54.5971
rfemur -7.66561 -2.17205 24.7778
rtibia 21.2459
rfoot -7.61708 -0.879987
rtoes 14.0317
lfemur -7.78689 -2.96127 -18.4972
ltibia 55.8208
lfoot 6.23862 -7.23054
ltoes -6.82905
500
root -11.2205 18.1175 12.0409 82.0851 -89.1666 -84.6505
lowerback 11.92 0.589048 0.674834
upperback 1.20248 0.89751 1.48836
thorax -5.43865 0.416522 1.03427
lowerneck -21.6483 -6.30222 -11.4006
upperneck 27.2055 -7.84445 8.0132
head 13.6236 -3.66991 3.62752
rclavicle -6.98231e-015 1.27222e-014
rhumerus -35.7063 -14.6611 -77.5997
rradius 27.8744
rwrist 7.70396
rhand -14.5427 9.69214
rfingers 7.12502
rthumb 11.6058 -19.9665
lclavicle -6.98231e-015 1.27222e-014
lhumerus -36.9813 2.84902 84.5613
lradius 29.8649
lwrist -8.98358
lhand -16.408 24.9287
lfingers 7.12502
lthumb 9.80649 54.6804
rfemur -7.27882 -2.16048 24.9109
rtibia 21.4315
rfoot -7.97305 -1.01712
rtoes 12.7495
lfemur -8.64694 -2.80511 -18.3697
ltibia 56.2311
lfoot 5.17463 -6.63778
ltoes -8.77289
